<mxfile host="app.diagrams.net" modified="2022-11-05T01:10:31.635Z" agent="5.0 (Windows)" etag="eeOzBr2-E4dofikJgn91" version="20.5.1" type="github">
  <diagram id="Y_4e-g6y54JG4lKSlURq" name="Page-1">
    <mxGraphModel dx="2523" dy="871" grid="1" gridSize="10" guides="1" tooltips="1" connect="1" arrows="1" fold="1" page="1" pageScale="1" pageWidth="850" pageHeight="1100" math="0" shadow="0">
      <root>
        <mxCell id="0" />
        <mxCell id="1" parent="0" />
        <mxCell id="4hGdP1M2JwbJeWWglB2I-54" value="" style="rounded=0;whiteSpace=wrap;html=1;strokeColor=#129416;" parent="1" vertex="1">
          <mxGeometry x="-700" y="115" width="4440" height="695" as="geometry" />
        </mxCell>
        <mxCell id="4hGdP1M2JwbJeWWglB2I-15" value="" style="rounded=0;whiteSpace=wrap;html=1;strokeColor=#0F17FF;" parent="1" vertex="1">
          <mxGeometry x="-170" y="210" width="2510" height="410" as="geometry" />
        </mxCell>
        <mxCell id="4hGdP1M2JwbJeWWglB2I-59" style="edgeStyle=orthogonalEdgeStyle;rounded=0;orthogonalLoop=1;jettySize=auto;html=1;exitX=0.5;exitY=0;exitDx=0;exitDy=0;entryX=0;entryY=0.5;entryDx=0;entryDy=0;strokeColor=#E62712;" parent="1" source="4hGdP1M2JwbJeWWglB2I-42" target="4hGdP1M2JwbJeWWglB2I-60" edge="1">
          <mxGeometry relative="1" as="geometry">
            <Array as="points">
              <mxPoint x="-260" y="155" />
            </Array>
          </mxGeometry>
        </mxCell>
        <mxCell id="9MLLla6oI4jPxRE4S_ba-36" value="old Process (hidden in Trainer)" style="edgeLabel;html=1;align=center;verticalAlign=middle;resizable=0;points=[];" parent="4hGdP1M2JwbJeWWglB2I-59" vertex="1" connectable="0">
          <mxGeometry x="-0.0858" y="2" relative="1" as="geometry">
            <mxPoint as="offset" />
          </mxGeometry>
        </mxCell>
        <mxCell id="4hGdP1M2JwbJeWWglB2I-1" value="Document" style="rounded=0;whiteSpace=wrap;html=1;fillColor=none;strokeColor=#0F17FF;" parent="1" vertex="1">
          <mxGeometry x="-140" y="325" width="120" height="60" as="geometry" />
        </mxCell>
        <mxCell id="9MLLla6oI4jPxRE4S_ba-65" style="edgeStyle=orthogonalEdgeStyle;rounded=0;orthogonalLoop=1;jettySize=auto;html=1;entryX=0.5;entryY=0;entryDx=0;entryDy=0;" parent="1" source="4hGdP1M2JwbJeWWglB2I-4" target="9MLLla6oI4jPxRE4S_ba-66" edge="1">
          <mxGeometry relative="1" as="geometry" />
        </mxCell>
        <mxCell id="4hGdP1M2JwbJeWWglB2I-4" value="&lt;b&gt;Document&lt;/b&gt; no Label with one Span per Annotation" style="rounded=0;whiteSpace=wrap;html=1;strokeColor=#0F17FF;" parent="1" vertex="1">
          <mxGeometry x="690" y="360" width="120" height="60" as="geometry" />
        </mxCell>
        <mxCell id="PVjARp0YHHE5zDxc7D2C-5" style="edgeStyle=orthogonalEdgeStyle;rounded=0;orthogonalLoop=1;jettySize=auto;html=1;exitX=1;exitY=0.5;exitDx=0;exitDy=0;entryX=0.5;entryY=0;entryDx=0;entryDy=0;" parent="1" source="4hGdP1M2JwbJeWWglB2I-25" target="9MLLla6oI4jPxRE4S_ba-72" edge="1">
          <mxGeometry relative="1" as="geometry">
            <Array as="points">
              <mxPoint x="1770" y="360" />
            </Array>
          </mxGeometry>
        </mxCell>
        <mxCell id="4hGdP1M2JwbJeWWglB2I-25" value="&lt;b&gt;Document&lt;/b&gt; with Annotation Sets" style="rounded=0;whiteSpace=wrap;html=1;strokeColor=#1222FF;" parent="1" vertex="1">
          <mxGeometry x="1560" y="330" width="120" height="60" as="geometry" />
        </mxCell>
        <mxCell id="4hGdP1M2JwbJeWWglB2I-38" value="SDK Concepts" style="rounded=0;whiteSpace=wrap;html=1;fillColor=none;strokeColor=#0F17FF;" parent="1" vertex="1">
          <mxGeometry x="40" y="220" width="120" height="60" as="geometry" />
        </mxCell>
        <mxCell id="9MLLla6oI4jPxRE4S_ba-107" value="" style="edgeStyle=orthogonalEdgeStyle;rounded=0;orthogonalLoop=1;jettySize=auto;html=1;" parent="1" source="4hGdP1M2JwbJeWWglB2I-40" target="9MLLla6oI4jPxRE4S_ba-106" edge="1">
          <mxGeometry relative="1" as="geometry">
            <Array as="points">
              <mxPoint x="2570" y="460" />
              <mxPoint x="2570" y="433" />
            </Array>
          </mxGeometry>
        </mxCell>
        <mxCell id="9MLLla6oI4jPxRE4S_ba-109" value="GET" style="edgeLabel;html=1;align=center;verticalAlign=middle;resizable=0;points=[];" parent="9MLLla6oI4jPxRE4S_ba-107" vertex="1" connectable="0">
          <mxGeometry x="0.1535" y="3" relative="1" as="geometry">
            <mxPoint as="offset" />
          </mxGeometry>
        </mxCell>
        <mxCell id="PVjARp0YHHE5zDxc7D2C-23" value="POST" style="edgeStyle=orthogonalEdgeStyle;rounded=0;orthogonalLoop=1;jettySize=auto;html=1;exitX=1;exitY=0.5;exitDx=0;exitDy=0;strokeColor=default;" parent="1" source="4hGdP1M2JwbJeWWglB2I-40" target="9MLLla6oI4jPxRE4S_ba-106" edge="1">
          <mxGeometry relative="1" as="geometry" />
        </mxCell>
        <mxCell id="4hGdP1M2JwbJeWWglB2I-40" value="&lt;b&gt;Document &lt;/b&gt;(with annotations)" style="rounded=0;whiteSpace=wrap;html=1;strokeColor=#129416;" parent="1" vertex="1">
          <mxGeometry x="2400" y="440" width="120" height="60" as="geometry" />
        </mxCell>
        <mxCell id="4hGdP1M2JwbJeWWglB2I-44" style="edgeStyle=orthogonalEdgeStyle;rounded=0;orthogonalLoop=1;jettySize=auto;html=1;" parent="1" source="4hGdP1M2JwbJeWWglB2I-42" target="4hGdP1M2JwbJeWWglB2I-1" edge="1">
          <mxGeometry relative="1" as="geometry">
            <Array as="points">
              <mxPoint x="-130" y="355" />
              <mxPoint x="-130" y="355" />
            </Array>
          </mxGeometry>
        </mxCell>
        <mxCell id="9MLLla6oI4jPxRE4S_ba-6" value="optional" style="edgeLabel;html=1;align=center;verticalAlign=middle;resizable=0;points=[];" parent="4hGdP1M2JwbJeWWglB2I-44" vertex="1" connectable="0">
          <mxGeometry x="-0.0631" relative="1" as="geometry">
            <mxPoint as="offset" />
          </mxGeometry>
        </mxCell>
        <mxCell id="9MLLla6oI4jPxRE4S_ba-1" value="" style="edgeStyle=orthogonalEdgeStyle;rounded=0;orthogonalLoop=1;jettySize=auto;html=1;" parent="1" source="4hGdP1M2JwbJeWWglB2I-42" target="4hGdP1M2JwbJeWWglB2I-43" edge="1">
          <mxGeometry relative="1" as="geometry" />
        </mxCell>
        <mxCell id="9MLLla6oI4jPxRE4S_ba-2" value="#9260" style="edgeLabel;html=1;align=center;verticalAlign=middle;resizable=0;points=[];" parent="9MLLla6oI4jPxRE4S_ba-1" vertex="1" connectable="0">
          <mxGeometry x="-0.2054" y="-1" relative="1" as="geometry">
            <mxPoint as="offset" />
          </mxGeometry>
        </mxCell>
        <mxCell id="4hGdP1M2JwbJeWWglB2I-42" value="Bbox on Character" style="rounded=0;whiteSpace=wrap;html=1;fillColor=none;strokeColor=#129416;" parent="1" vertex="1">
          <mxGeometry x="-320" y="325" width="120" height="60" as="geometry" />
        </mxCell>
        <mxCell id="4hGdP1M2JwbJeWWglB2I-45" style="edgeStyle=orthogonalEdgeStyle;rounded=0;orthogonalLoop=1;jettySize=auto;html=1;" parent="1" source="4hGdP1M2JwbJeWWglB2I-43" target="4hGdP1M2JwbJeWWglB2I-1" edge="1">
          <mxGeometry relative="1" as="geometry">
            <Array as="points">
              <mxPoint x="-110" y="485" />
            </Array>
          </mxGeometry>
        </mxCell>
        <mxCell id="4hGdP1M2JwbJeWWglB2I-43" value="Text" style="rounded=0;whiteSpace=wrap;html=1;fillColor=none;strokeColor=#129416;" parent="1" vertex="1">
          <mxGeometry x="-320" y="462.5" width="120" height="60" as="geometry" />
        </mxCell>
        <mxCell id="9MLLla6oI4jPxRE4S_ba-94" style="edgeStyle=orthogonalEdgeStyle;rounded=0;orthogonalLoop=1;jettySize=auto;html=1;" parent="1" source="4hGdP1M2JwbJeWWglB2I-46" target="9MLLla6oI4jPxRE4S_ba-93" edge="1">
          <mxGeometry relative="1" as="geometry" />
        </mxCell>
        <mxCell id="4hGdP1M2JwbJeWWglB2I-46" value="Document" style="rounded=0;whiteSpace=wrap;html=1;strokeColor=#0F17FF;" parent="1" vertex="1">
          <mxGeometry x="1393" y="532.5" width="120" height="60" as="geometry" />
        </mxCell>
        <mxCell id="4hGdP1M2JwbJeWWglB2I-50" style="edgeStyle=orthogonalEdgeStyle;rounded=0;orthogonalLoop=1;jettySize=auto;html=1;" parent="1" source="4hGdP1M2JwbJeWWglB2I-47" target="4hGdP1M2JwbJeWWglB2I-46" edge="1">
          <mxGeometry relative="1" as="geometry" />
        </mxCell>
        <mxCell id="V9HdjX9iqHW_Pui06T7V-1" value="conversion in #9271" style="edgeLabel;html=1;align=center;verticalAlign=middle;resizable=0;points=[];" parent="4hGdP1M2JwbJeWWglB2I-50" vertex="1" connectable="0">
          <mxGeometry x="-0.3794" y="-1" relative="1" as="geometry">
            <mxPoint as="offset" />
          </mxGeometry>
        </mxCell>
        <mxCell id="4hGdP1M2JwbJeWWglB2I-47" value="Server Document" style="rounded=0;whiteSpace=wrap;html=1;strokeColor=#129416;" parent="1" vertex="1">
          <mxGeometry x="1393" y="660" width="120" height="60" as="geometry" />
        </mxCell>
        <mxCell id="4hGdP1M2JwbJeWWglB2I-55" value="Server" style="rounded=0;whiteSpace=wrap;html=1;fillColor=none;strokeColor=#129416;" parent="1" vertex="1">
          <mxGeometry x="-510" y="150" width="120" height="60" as="geometry" />
        </mxCell>
        <mxCell id="9MLLla6oI4jPxRE4S_ba-114" style="edgeStyle=orthogonalEdgeStyle;rounded=0;orthogonalLoop=1;jettySize=auto;html=1;" parent="1" source="4hGdP1M2JwbJeWWglB2I-56" target="9MLLla6oI4jPxRE4S_ba-104" edge="1">
          <mxGeometry relative="1" as="geometry" />
        </mxCell>
        <mxCell id="PVjARp0YHHE5zDxc7D2C-24" style="rounded=0;orthogonalLoop=1;jettySize=auto;html=1;exitX=0.75;exitY=0;exitDx=0;exitDy=0;strokeColor=default;edgeStyle=orthogonalEdgeStyle;endArrow=none;endFill=0;" parent="1" source="4hGdP1M2JwbJeWWglB2I-56" edge="1">
          <mxGeometry relative="1" as="geometry">
            <mxPoint x="2570" y="460" as="targetPoint" />
            <Array as="points">
              <mxPoint x="2530" y="533" />
              <mxPoint x="2530" y="501" />
              <mxPoint x="2570" y="501" />
            </Array>
          </mxGeometry>
        </mxCell>
        <mxCell id="4hGdP1M2JwbJeWWglB2I-56" value="Evaluation" style="rounded=0;whiteSpace=wrap;html=1;strokeColor=#129416;" parent="1" vertex="1">
          <mxGeometry x="2420" y="532.5" width="120" height="60" as="geometry" />
        </mxCell>
        <mxCell id="4hGdP1M2JwbJeWWglB2I-61" style="edgeStyle=orthogonalEdgeStyle;rounded=0;orthogonalLoop=1;jettySize=auto;html=1;strokeColor=#EB2813;entryX=0.5;entryY=0;entryDx=0;entryDy=0;" parent="1" source="4hGdP1M2JwbJeWWglB2I-60" target="4hGdP1M2JwbJeWWglB2I-40" edge="1">
          <mxGeometry relative="1" as="geometry">
            <Array as="points">
              <mxPoint x="2460" y="155" />
            </Array>
          </mxGeometry>
        </mxCell>
        <mxCell id="4hGdP1M2JwbJeWWglB2I-60" value="extract dataframe" style="rounded=0;whiteSpace=wrap;html=1;strokeColor=#FF2C14;" parent="1" vertex="1">
          <mxGeometry x="1413" y="125" width="120" height="60" as="geometry" />
        </mxCell>
        <mxCell id="9MLLla6oI4jPxRE4S_ba-4" style="edgeStyle=orthogonalEdgeStyle;rounded=0;orthogonalLoop=1;jettySize=auto;html=1;entryX=0.5;entryY=0;entryDx=0;entryDy=0;" parent="1" source="9MLLla6oI4jPxRE4S_ba-3" target="4hGdP1M2JwbJeWWglB2I-1" edge="1">
          <mxGeometry relative="1" as="geometry">
            <Array as="points">
              <mxPoint x="-247" y="275" />
              <mxPoint x="263" y="275" />
            </Array>
          </mxGeometry>
        </mxCell>
        <mxCell id="9MLLla6oI4jPxRE4S_ba-5" value="optional" style="edgeLabel;html=1;align=center;verticalAlign=middle;resizable=0;points=[];" parent="9MLLla6oI4jPxRE4S_ba-4" vertex="1" connectable="0">
          <mxGeometry x="-0.2629" y="-1" relative="1" as="geometry">
            <mxPoint as="offset" />
          </mxGeometry>
        </mxCell>
        <mxCell id="9MLLla6oI4jPxRE4S_ba-40" value="" style="edgeStyle=orthogonalEdgeStyle;rounded=0;orthogonalLoop=1;jettySize=auto;html=1;" parent="1" source="9MLLla6oI4jPxRE4S_ba-3" target="9MLLla6oI4jPxRE4S_ba-39" edge="1">
          <mxGeometry relative="1" as="geometry" />
        </mxCell>
        <mxCell id="9MLLla6oI4jPxRE4S_ba-3" value="OCR" style="rounded=0;whiteSpace=wrap;html=1;fillColor=none;strokeColor=#129416;" parent="1" vertex="1">
          <mxGeometry x="-610" y="325" width="120" height="60" as="geometry" />
        </mxCell>
        <mxCell id="PVjARp0YHHE5zDxc7D2C-16" style="edgeStyle=orthogonalEdgeStyle;rounded=0;orthogonalLoop=1;jettySize=auto;html=1;exitX=1;exitY=0.5;exitDx=0;exitDy=0;entryX=0;entryY=0.5;entryDx=0;entryDy=0;" parent="1" source="9MLLla6oI4jPxRE4S_ba-10" target="PVjARp0YHHE5zDxc7D2C-7" edge="1">
          <mxGeometry relative="1" as="geometry" />
        </mxCell>
        <mxCell id="9MLLla6oI4jPxRE4S_ba-10" value="&lt;b&gt;DataFrame&lt;/b&gt; with labeled Spans" style="rounded=0;whiteSpace=wrap;html=1;strokeColor=#0F17FF;" parent="1" vertex="1">
          <mxGeometry x="1050" y="325" width="120" height="60" as="geometry" />
        </mxCell>
        <mxCell id="9MLLla6oI4jPxRE4S_ba-14" style="edgeStyle=orthogonalEdgeStyle;rounded=0;orthogonalLoop=1;jettySize=auto;html=1;" parent="1" source="9MLLla6oI4jPxRE4S_ba-12" target="4hGdP1M2JwbJeWWglB2I-25" edge="1">
          <mxGeometry relative="1" as="geometry" />
        </mxCell>
        <mxCell id="9MLLla6oI4jPxRE4S_ba-12" value="LabelSet Classifier" style="rounded=0;whiteSpace=wrap;html=1;strokeColor=#44B78B;strokeWidth=3;" parent="1" vertex="1">
          <mxGeometry x="1393" y="330" width="120" height="60" as="geometry" />
        </mxCell>
        <mxCell id="9MLLla6oI4jPxRE4S_ba-45" style="edgeStyle=orthogonalEdgeStyle;rounded=0;orthogonalLoop=1;jettySize=auto;html=1;" parent="1" source="9MLLla6oI4jPxRE4S_ba-90" target="4hGdP1M2JwbJeWWglB2I-40" edge="1">
          <mxGeometry relative="1" as="geometry">
            <mxPoint x="1803" y="355" as="sourcePoint" />
          </mxGeometry>
        </mxCell>
        <mxCell id="V9HdjX9iqHW_Pui06T7V-2" value="#9443" style="edgeLabel;html=1;align=center;verticalAlign=middle;resizable=0;points=[];" parent="9MLLla6oI4jPxRE4S_ba-45" vertex="1" connectable="0">
          <mxGeometry x="-0.1333" relative="1" as="geometry">
            <mxPoint as="offset" />
          </mxGeometry>
        </mxCell>
        <mxCell id="9MLLla6oI4jPxRE4S_ba-41" style="edgeStyle=orthogonalEdgeStyle;rounded=0;orthogonalLoop=1;jettySize=auto;html=1;" parent="1" source="9MLLla6oI4jPxRE4S_ba-39" target="4hGdP1M2JwbJeWWglB2I-42" edge="1">
          <mxGeometry relative="1" as="geometry" />
        </mxCell>
        <mxCell id="9MLLla6oI4jPxRE4S_ba-39" value="Images" style="rounded=0;whiteSpace=wrap;html=1;fillColor=none;strokeColor=#129416;" parent="1" vertex="1">
          <mxGeometry x="-470" y="325" width="120" height="60" as="geometry" />
        </mxCell>
        <mxCell id="9MLLla6oI4jPxRE4S_ba-43" style="edgeStyle=orthogonalEdgeStyle;rounded=0;orthogonalLoop=1;jettySize=auto;html=1;" parent="1" source="9MLLla6oI4jPxRE4S_ba-42" target="9MLLla6oI4jPxRE4S_ba-3" edge="1">
          <mxGeometry relative="1" as="geometry" />
        </mxCell>
        <mxCell id="9MLLla6oI4jPxRE4S_ba-92" value="POST" style="edgeLabel;html=1;align=center;verticalAlign=middle;resizable=0;points=[];" parent="9MLLla6oI4jPxRE4S_ba-43" vertex="1" connectable="0">
          <mxGeometry x="0.236" y="-2" relative="1" as="geometry">
            <mxPoint x="-13" y="-2" as="offset" />
          </mxGeometry>
        </mxCell>
        <mxCell id="9MLLla6oI4jPxRE4S_ba-42" value="File" style="rounded=0;whiteSpace=wrap;html=1;fillColor=none;strokeColor=#3D0A05;" parent="1" vertex="1">
          <mxGeometry x="-840" y="325" width="120" height="60" as="geometry" />
        </mxCell>
        <mxCell id="9MLLla6oI4jPxRE4S_ba-53" value="Tokenizers" style="swimlane;fontStyle=0;childLayout=stackLayout;horizontal=1;startSize=30;horizontalStack=0;resizeParent=1;resizeParentMax=0;resizeLast=0;collapsible=1;marginBottom=0;strokeColor=#44B78B;strokeWidth=3;" parent="1" vertex="1">
          <mxGeometry x="480" y="300" width="160" height="150" as="geometry">
            <mxRectangle x="320" y="370" width="150" height="30" as="alternateBounds" />
          </mxGeometry>
        </mxCell>
        <mxCell id="9MLLla6oI4jPxRE4S_ba-56" value="RegexTokenizer" style="text;strokeColor=none;fillColor=none;align=left;verticalAlign=middle;spacingLeft=4;spacingRight=4;overflow=hidden;points=[[0,0.5],[1,0.5]];portConstraint=eastwest;rotatable=0;" parent="9MLLla6oI4jPxRE4S_ba-53" vertex="1">
          <mxGeometry y="30" width="160" height="30" as="geometry" />
        </mxCell>
        <mxCell id="PVjARp0YHHE5zDxc7D2C-11" value="WhitespaceTokenizer" style="text;strokeColor=none;fillColor=none;align=left;verticalAlign=middle;spacingLeft=4;spacingRight=4;overflow=hidden;points=[[0,0.5],[1,0.5]];portConstraint=eastwest;rotatable=0;" parent="9MLLla6oI4jPxRE4S_ba-53" vertex="1">
          <mxGeometry y="60" width="160" height="30" as="geometry" />
        </mxCell>
        <mxCell id="9MLLla6oI4jPxRE4S_ba-54" value="SentenceTokenizer #9376" style="text;strokeColor=none;fillColor=none;align=left;verticalAlign=middle;spacingLeft=4;spacingRight=4;overflow=hidden;points=[[0,0.5],[1,0.5]];portConstraint=eastwest;rotatable=0;" parent="9MLLla6oI4jPxRE4S_ba-53" vertex="1">
          <mxGeometry y="90" width="160" height="30" as="geometry" />
        </mxCell>
        <mxCell id="9MLLla6oI4jPxRE4S_ba-55" value="ParagraphTokenizer #9331" style="text;strokeColor=none;fillColor=none;align=left;verticalAlign=middle;spacingLeft=4;spacingRight=4;overflow=hidden;points=[[0,0.5],[1,0.5]];portConstraint=eastwest;rotatable=0;" parent="9MLLla6oI4jPxRE4S_ba-53" vertex="1">
          <mxGeometry y="120" width="160" height="30" as="geometry" />
        </mxCell>
        <mxCell id="9MLLla6oI4jPxRE4S_ba-57" style="edgeStyle=orthogonalEdgeStyle;rounded=0;orthogonalLoop=1;jettySize=auto;html=1;" parent="1" source="9MLLla6oI4jPxRE4S_ba-56" target="4hGdP1M2JwbJeWWglB2I-4" edge="1">
          <mxGeometry relative="1" as="geometry" />
        </mxCell>
        <mxCell id="9MLLla6oI4jPxRE4S_ba-64" style="edgeStyle=orthogonalEdgeStyle;rounded=0;orthogonalLoop=1;jettySize=auto;html=1;entryX=0.5;entryY=0;entryDx=0;entryDy=0;" parent="1" source="9MLLla6oI4jPxRE4S_ba-58" target="9MLLla6oI4jPxRE4S_ba-66" edge="1">
          <mxGeometry relative="1" as="geometry" />
        </mxCell>
        <mxCell id="9MLLla6oI4jPxRE4S_ba-58" value="&lt;b&gt;Document&lt;/b&gt;&amp;nbsp;with no Label Annotations with multiple Spans" style="rounded=0;whiteSpace=wrap;html=1;strokeColor=#0F17FF;" parent="1" vertex="1">
          <mxGeometry x="690" y="290" width="120" height="60" as="geometry" />
        </mxCell>
        <mxCell id="9MLLla6oI4jPxRE4S_ba-59" style="edgeStyle=orthogonalEdgeStyle;rounded=0;orthogonalLoop=1;jettySize=auto;html=1;entryX=0;entryY=0.5;entryDx=0;entryDy=0;" parent="1" source="9MLLla6oI4jPxRE4S_ba-55" target="9MLLla6oI4jPxRE4S_ba-58" edge="1">
          <mxGeometry relative="1" as="geometry" />
        </mxCell>
        <mxCell id="9MLLla6oI4jPxRE4S_ba-71" style="edgeStyle=orthogonalEdgeStyle;rounded=0;orthogonalLoop=1;jettySize=auto;html=1;" parent="1" source="9MLLla6oI4jPxRE4S_ba-66" target="9MLLla6oI4jPxRE4S_ba-10" edge="1">
          <mxGeometry relative="1" as="geometry" />
        </mxCell>
        <mxCell id="9MLLla6oI4jPxRE4S_ba-66" value="Label Classifier" style="swimlane;fontStyle=0;childLayout=stackLayout;horizontal=1;startSize=30;horizontalStack=0;resizeParent=1;resizeParentMax=0;resizeLast=0;collapsible=1;marginBottom=0;strokeColor=#44B78B;strokeWidth=3;" parent="1" vertex="1">
          <mxGeometry x="850" y="320" width="160" height="70" as="geometry">
            <mxRectangle x="320" y="370" width="150" height="30" as="alternateBounds" />
          </mxGeometry>
        </mxCell>
        <mxCell id="9MLLla6oI4jPxRE4S_ba-67" value="RFExtractionAI &#xa;(Random Forest)" style="text;strokeColor=none;fillColor=none;align=left;verticalAlign=middle;spacingLeft=4;spacingRight=4;overflow=hidden;points=[[0,0.5],[1,0.5]];portConstraint=eastwest;rotatable=0;" parent="9MLLla6oI4jPxRE4S_ba-66" vertex="1">
          <mxGeometry y="30" width="160" height="40" as="geometry" />
        </mxCell>
        <mxCell id="9MLLla6oI4jPxRE4S_ba-88" style="edgeStyle=orthogonalEdgeStyle;rounded=0;orthogonalLoop=1;jettySize=auto;html=1;entryX=0;entryY=0.5;entryDx=0;entryDy=0;" parent="1" source="9MLLla6oI4jPxRE4S_ba-72" target="9MLLla6oI4jPxRE4S_ba-77" edge="1">
          <mxGeometry relative="1" as="geometry" />
        </mxCell>
        <mxCell id="9MLLla6oI4jPxRE4S_ba-72" value="Postprocessing" style="swimlane;fontStyle=0;childLayout=stackLayout;horizontal=1;startSize=30;horizontalStack=0;resizeParent=1;resizeParentMax=0;resizeLast=0;collapsible=1;marginBottom=0;strokeColor=#44B78B;strokeWidth=3;" parent="1" vertex="1">
          <mxGeometry x="1690" y="410" width="160" height="60" as="geometry">
            <mxRectangle x="320" y="370" width="150" height="30" as="alternateBounds" />
          </mxGeometry>
        </mxCell>
        <mxCell id="9MLLla6oI4jPxRE4S_ba-85" value="merge vertical" style="text;strokeColor=none;fillColor=none;align=left;verticalAlign=middle;spacingLeft=4;spacingRight=4;overflow=hidden;points=[[0,0.5],[1,0.5]];portConstraint=eastwest;rotatable=0;" parent="9MLLla6oI4jPxRE4S_ba-72" vertex="1">
          <mxGeometry y="30" width="160" height="30" as="geometry" />
        </mxCell>
        <mxCell id="9MLLla6oI4jPxRE4S_ba-89" style="edgeStyle=orthogonalEdgeStyle;rounded=0;orthogonalLoop=1;jettySize=auto;html=1;entryX=0.5;entryY=0;entryDx=0;entryDy=0;" parent="1" source="9MLLla6oI4jPxRE4S_ba-77" target="9MLLla6oI4jPxRE4S_ba-78" edge="1">
          <mxGeometry relative="1" as="geometry">
            <Array as="points">
              <mxPoint x="1950" y="255" />
              <mxPoint x="2210" y="255" />
            </Array>
          </mxGeometry>
        </mxCell>
        <mxCell id="9MLLla6oI4jPxRE4S_ba-95" style="edgeStyle=orthogonalEdgeStyle;rounded=0;orthogonalLoop=1;jettySize=auto;html=1;" parent="1" source="9MLLla6oI4jPxRE4S_ba-77" target="9MLLla6oI4jPxRE4S_ba-93" edge="1">
          <mxGeometry relative="1" as="geometry" />
        </mxCell>
        <mxCell id="9MLLla6oI4jPxRE4S_ba-77" value="&lt;b&gt;Document &lt;/b&gt;(with annotations)" style="rounded=0;whiteSpace=wrap;html=1;strokeColor=#1222FF;" parent="1" vertex="1">
          <mxGeometry x="1890" y="410" width="120" height="60" as="geometry" />
        </mxCell>
        <mxCell id="9MLLla6oI4jPxRE4S_ba-91" style="edgeStyle=orthogonalEdgeStyle;rounded=0;orthogonalLoop=1;jettySize=auto;html=1;" parent="1" source="9MLLla6oI4jPxRE4S_ba-78" target="9MLLla6oI4jPxRE4S_ba-90" edge="1">
          <mxGeometry relative="1" as="geometry" />
        </mxCell>
        <mxCell id="9MLLla6oI4jPxRE4S_ba-78" value="Plausibility" style="swimlane;fontStyle=0;childLayout=stackLayout;horizontal=1;startSize=30;horizontalStack=0;resizeParent=1;resizeParentMax=0;resizeLast=0;collapsible=1;marginBottom=0;strokeColor=#44B78B;strokeWidth=3;" parent="1" vertex="1">
          <mxGeometry x="2110" y="275" width="160" height="90" as="geometry">
            <mxRectangle x="320" y="370" width="150" height="30" as="alternateBounds" />
          </mxGeometry>
        </mxCell>
        <mxCell id="9MLLla6oI4jPxRE4S_ba-79" value="Spans.bbox()" style="text;strokeColor=none;fillColor=none;align=left;verticalAlign=middle;spacingLeft=4;spacingRight=4;overflow=hidden;points=[[0,0.5],[1,0.5]];portConstraint=eastwest;rotatable=0;" parent="9MLLla6oI4jPxRE4S_ba-78" vertex="1">
          <mxGeometry y="30" width="160" height="30" as="geometry" />
        </mxCell>
        <mxCell id="9MLLla6oI4jPxRE4S_ba-80" value="convert to BIO Schema" style="text;strokeColor=none;fillColor=none;align=left;verticalAlign=middle;spacingLeft=4;spacingRight=4;overflow=hidden;points=[[0,0.5],[1,0.5]];portConstraint=eastwest;rotatable=0;" parent="9MLLla6oI4jPxRE4S_ba-78" vertex="1">
          <mxGeometry y="60" width="160" height="30" as="geometry" />
        </mxCell>
        <mxCell id="9MLLla6oI4jPxRE4S_ba-97" style="edgeStyle=orthogonalEdgeStyle;rounded=0;orthogonalLoop=1;jettySize=auto;html=1;" parent="1" source="9MLLla6oI4jPxRE4S_ba-93" target="9MLLla6oI4jPxRE4S_ba-96" edge="1">
          <mxGeometry relative="1" as="geometry" />
        </mxCell>
        <mxCell id="9MLLla6oI4jPxRE4S_ba-93" value="compare" style="rhombus;whiteSpace=wrap;html=1;strokeColor=#3D0A05;strokeWidth=3;" parent="1" vertex="1">
          <mxGeometry x="1910" y="522.5" width="80" height="80" as="geometry" />
        </mxCell>
        <mxCell id="9MLLla6oI4jPxRE4S_ba-98" style="edgeStyle=orthogonalEdgeStyle;rounded=0;orthogonalLoop=1;jettySize=auto;html=1;" parent="1" source="9MLLla6oI4jPxRE4S_ba-96" target="4hGdP1M2JwbJeWWglB2I-56" edge="1">
          <mxGeometry relative="1" as="geometry" />
        </mxCell>
        <mxCell id="9MLLla6oI4jPxRE4S_ba-96" value="Evaluation" style="rounded=0;whiteSpace=wrap;html=1;strokeColor=#0F17FF;" parent="1" vertex="1">
          <mxGeometry x="2125" y="532.5" width="120" height="60" as="geometry" />
        </mxCell>
        <mxCell id="9MLLla6oI4jPxRE4S_ba-104" value="CSV" style="rounded=0;whiteSpace=wrap;html=1;strokeColor=#3D0A05;" parent="1" vertex="1">
          <mxGeometry x="2830" y="525" width="120" height="60" as="geometry" />
        </mxCell>
        <mxCell id="9MLLla6oI4jPxRE4S_ba-106" value="JSON" style="rounded=0;whiteSpace=wrap;html=1;strokeColor=#3D0A05;" parent="1" vertex="1">
          <mxGeometry x="2830" y="435" width="120" height="60" as="geometry" />
        </mxCell>
        <mxCell id="V9HdjX9iqHW_Pui06T7V-6" style="edgeStyle=orthogonalEdgeStyle;rounded=0;orthogonalLoop=1;jettySize=auto;html=1;" parent="1" source="V9HdjX9iqHW_Pui06T7V-3" target="4hGdP1M2JwbJeWWglB2I-25" edge="1">
          <mxGeometry relative="1" as="geometry" />
        </mxCell>
        <mxCell id="V9HdjX9iqHW_Pui06T7V-7" value="pull 109 / #9435" style="edgeLabel;html=1;align=center;verticalAlign=middle;resizable=0;points=[];" parent="V9HdjX9iqHW_Pui06T7V-6" vertex="1" connectable="0">
          <mxGeometry x="-0.3404" y="2" relative="1" as="geometry">
            <mxPoint as="offset" />
          </mxGeometry>
        </mxCell>
        <mxCell id="V9HdjX9iqHW_Pui06T7V-3" value="extract dataframe" style="rounded=0;whiteSpace=wrap;html=1;strokeColor=#FF2C14;" parent="1" vertex="1">
          <mxGeometry x="950" y="455" width="120" height="60" as="geometry" />
        </mxCell>
        <mxCell id="V9HdjX9iqHW_Pui06T7V-4" style="edgeStyle=orthogonalEdgeStyle;rounded=0;orthogonalLoop=1;jettySize=auto;html=1;exitX=0.75;exitY=1;exitDx=0;exitDy=0;entryX=0;entryY=0.5;entryDx=0;entryDy=0;strokeColor=#E62712;" parent="1" source="4hGdP1M2JwbJeWWglB2I-1" target="V9HdjX9iqHW_Pui06T7V-3" edge="1">
          <mxGeometry relative="1" as="geometry">
            <Array as="points">
              <mxPoint x="-70" y="385" />
              <mxPoint x="-70" y="485" />
            </Array>
            <mxPoint x="83" y="335" as="sourcePoint" />
            <mxPoint x="1423" y="165" as="targetPoint" />
          </mxGeometry>
        </mxCell>
        <mxCell id="V9HdjX9iqHW_Pui06T7V-5" value="old Process (hidden in Trainer)" style="edgeLabel;html=1;align=center;verticalAlign=middle;resizable=0;points=[];" parent="V9HdjX9iqHW_Pui06T7V-4" vertex="1" connectable="0">
          <mxGeometry x="-0.0858" y="2" relative="1" as="geometry">
            <mxPoint as="offset" />
          </mxGeometry>
        </mxCell>
        <mxCell id="_Jl0bR7rnxiuHE7fY8Y--5" value="" style="endArrow=classic;html=1;rounded=0;exitX=1;exitY=0.5;exitDx=0;exitDy=0;" parent="1" source="4hGdP1M2JwbJeWWglB2I-1" edge="1">
          <mxGeometry width="50" height="50" relative="1" as="geometry">
            <mxPoint x="200" y="420" as="sourcePoint" />
            <mxPoint x="30" y="355" as="targetPoint" />
          </mxGeometry>
        </mxCell>
        <mxCell id="_Jl0bR7rnxiuHE7fY8Y--6" value="Text" style="text;html=1;resizable=0;autosize=1;align=center;verticalAlign=middle;points=[];fillColor=none;strokeColor=none;rounded=0;" parent="1" vertex="1">
          <mxGeometry x="160" y="470" width="40" height="20" as="geometry" />
        </mxCell>
        <mxCell id="gmDyt483ovcnzdWVHVRp-16" value="" style="edgeStyle=orthogonalEdgeStyle;rounded=0;orthogonalLoop=1;jettySize=auto;html=1;entryX=0;entryY=0.5;entryDx=0;entryDy=0;" parent="1" target="gmDyt483ovcnzdWVHVRp-9" edge="1">
          <mxGeometry relative="1" as="geometry">
            <mxPoint x="370.0344827586209" y="325" as="sourcePoint" />
            <mxPoint x="370" y="245" as="targetPoint" />
            <Array as="points">
              <mxPoint x="370" y="300" />
              <mxPoint x="390" y="300" />
              <mxPoint x="390" y="250" />
            </Array>
          </mxGeometry>
        </mxCell>
        <mxCell id="_Jl0bR7rnxiuHE7fY8Y--8" value="Text" style="text;html=1;resizable=0;autosize=1;align=center;verticalAlign=middle;points=[];fillColor=none;strokeColor=none;rounded=0;" parent="1" vertex="1">
          <mxGeometry x="160" y="470" width="40" height="20" as="geometry" />
        </mxCell>
        <mxCell id="gmDyt483ovcnzdWVHVRp-1" value="Categorization AI" style="rounded=0;whiteSpace=wrap;html=1;strokeWidth=3;strokeColor=#67AB9F;" parent="1" vertex="1">
          <mxGeometry x="30" y="325" width="120" height="60" as="geometry" />
        </mxCell>
        <mxCell id="gmDyt483ovcnzdWVHVRp-7" value="&lt;b&gt;Document&lt;/b&gt; with defined Category" style="rounded=0;whiteSpace=wrap;html=1;strokeColor=#3333FF;strokeWidth=1;" parent="1" vertex="1">
          <mxGeometry x="170" y="325" width="120" height="60" as="geometry" />
        </mxCell>
        <mxCell id="gmDyt483ovcnzdWVHVRp-8" value="Text" style="text;html=1;resizable=0;autosize=1;align=center;verticalAlign=middle;points=[];fillColor=none;strokeColor=none;rounded=0;strokeWidth=1;" parent="1" vertex="1">
          <mxGeometry x="1570" y="1030" width="40" height="20" as="geometry" />
        </mxCell>
        <mxCell id="gmDyt483ovcnzdWVHVRp-18" value="" style="edgeStyle=orthogonalEdgeStyle;rounded=0;orthogonalLoop=1;jettySize=auto;html=1;" parent="1" source="gmDyt483ovcnzdWVHVRp-9" edge="1">
          <mxGeometry relative="1" as="geometry">
            <mxPoint x="560" y="300" as="targetPoint" />
          </mxGeometry>
        </mxCell>
        <mxCell id="PVjARp0YHHE5zDxc7D2C-20" style="edgeStyle=orthogonalEdgeStyle;rounded=0;orthogonalLoop=1;jettySize=auto;html=1;exitX=1;exitY=0.25;exitDx=0;exitDy=0;entryX=0;entryY=0.5;entryDx=0;entryDy=0;strokeColor=default;dashed=1;" parent="1" source="gmDyt483ovcnzdWVHVRp-9" target="PVjARp0YHHE5zDxc7D2C-19" edge="1">
          <mxGeometry relative="1" as="geometry" />
        </mxCell>
        <mxCell id="gmDyt483ovcnzdWVHVRp-9" value="One or several new &lt;b&gt;Documents&lt;/b&gt; " style="rounded=0;whiteSpace=wrap;html=1;strokeColor=#3333FF;strokeWidth=1;" parent="1" vertex="1">
          <mxGeometry x="410" y="220" width="120" height="60" as="geometry" />
        </mxCell>
        <mxCell id="gmDyt483ovcnzdWVHVRp-11" value="" style="endArrow=classic;html=1;rounded=0;entryX=0;entryY=0.5;entryDx=0;entryDy=0;exitX=1;exitY=0.5;exitDx=0;exitDy=0;" parent="1" source="gmDyt483ovcnzdWVHVRp-1" target="gmDyt483ovcnzdWVHVRp-7" edge="1">
          <mxGeometry width="50" height="50" relative="1" as="geometry">
            <mxPoint x="390" y="540" as="sourcePoint" />
            <mxPoint x="440" y="490" as="targetPoint" />
          </mxGeometry>
        </mxCell>
        <mxCell id="gmDyt483ovcnzdWVHVRp-12" value="" style="endArrow=classic;html=1;rounded=0;entryX=0;entryY=0.5;entryDx=0;entryDy=0;" parent="1" source="gmDyt483ovcnzdWVHVRp-7" edge="1">
          <mxGeometry width="50" height="50" relative="1" as="geometry">
            <mxPoint x="390" y="540" as="sourcePoint" />
            <mxPoint x="310" y="355" as="targetPoint" />
          </mxGeometry>
        </mxCell>
        <mxCell id="gmDyt483ovcnzdWVHVRp-19" value="Splitting AI" style="swimlane;strokeColor=#67AB9F;strokeWidth=3;fontStyle=0" parent="1" vertex="1">
          <mxGeometry x="310" y="300" width="140" height="120" as="geometry" />
        </mxCell>
        <mxCell id="gmDyt483ovcnzdWVHVRp-20" value="&lt;div align=&quot;left&quot;&gt;Fallback logic&lt;/div&gt;&lt;div align=&quot;left&quot;&gt;&lt;br&gt;&lt;/div&gt;&lt;div align=&quot;left&quot;&gt;Fusion model #9622&lt;br&gt;&lt;/div&gt;" style="text;html=1;resizable=0;autosize=1;align=left;verticalAlign=middle;points=[];fillColor=none;strokeColor=none;rounded=0;strokeWidth=3;" parent="gmDyt483ovcnzdWVHVRp-19" vertex="1">
          <mxGeometry x="5" y="29" width="130" height="60" as="geometry" />
        </mxCell>
        <mxCell id="PVjARp0YHHE5zDxc7D2C-14" style="edgeStyle=orthogonalEdgeStyle;rounded=0;orthogonalLoop=1;jettySize=auto;html=1;exitX=1;exitY=0.5;exitDx=0;exitDy=0;entryX=0;entryY=0.5;entryDx=0;entryDy=0;" parent="1" source="PVjARp0YHHE5zDxc7D2C-7" target="9MLLla6oI4jPxRE4S_ba-12" edge="1">
          <mxGeometry relative="1" as="geometry" />
        </mxCell>
        <mxCell id="PVjARp0YHHE5zDxc7D2C-7" value="Postprocessing" style="swimlane;fontStyle=0;childLayout=stackLayout;horizontal=1;startSize=30;horizontalStack=0;resizeParent=1;resizeParentMax=0;resizeLast=0;collapsible=1;marginBottom=0;strokeColor=#44B78B;strokeWidth=3;" parent="1" vertex="1">
          <mxGeometry x="1200" y="330" width="140" height="60" as="geometry">
            <mxRectangle x="320" y="370" width="150" height="30" as="alternateBounds" />
          </mxGeometry>
        </mxCell>
        <mxCell id="PVjARp0YHHE5zDxc7D2C-8" value="merge horizontal" style="text;strokeColor=none;fillColor=none;align=left;verticalAlign=middle;spacingLeft=4;spacingRight=4;overflow=hidden;points=[[0,0.5],[1,0.5]];portConstraint=eastwest;rotatable=0;" parent="PVjARp0YHHE5zDxc7D2C-7" vertex="1">
          <mxGeometry y="30" width="140" height="30" as="geometry" />
        </mxCell>
        <mxCell id="9MLLla6oI4jPxRE4S_ba-90" value="Server valid&lt;br&gt;&lt;b&gt;Document&lt;/b&gt;" style="rounded=0;whiteSpace=wrap;html=1;strokeColor=#1222FF;" parent="1" vertex="1">
          <mxGeometry x="2130" y="450" width="120" height="60" as="geometry" />
        </mxCell>
        <mxCell id="PVjARp0YHHE5zDxc7D2C-21" style="edgeStyle=orthogonalEdgeStyle;rounded=0;orthogonalLoop=1;jettySize=auto;html=1;exitX=1;exitY=0.5;exitDx=0;exitDy=0;dashed=1;strokeColor=default;" parent="1" source="PVjARp0YHHE5zDxc7D2C-19" target="9MLLla6oI4jPxRE4S_ba-10" edge="1">
          <mxGeometry relative="1" as="geometry" />
        </mxCell>
        <mxCell id="PVjARp0YHHE5zDxc7D2C-19" value="BERT NER Classifier&lt;br&gt;#9532" style="rounded=0;whiteSpace=wrap;html=1;dashed=1;" parent="1" vertex="1">
          <mxGeometry x="670" y="220" width="120" height="40" as="geometry" />
        </mxCell>
        <mxCell id="LKTkPYLuN1g2WceH0jgF-63" value="Send Events" style="edgeStyle=orthogonalEdgeStyle;rounded=0;orthogonalLoop=1;jettySize=auto;html=1;movable=1;resizable=1;rotatable=1;deletable=1;editable=1;connectable=1;" parent="1" source="LKTkPYLuN1g2WceH0jgF-64" target="LKTkPYLuN1g2WceH0jgF-72" edge="1">
          <mxGeometry relative="1" as="geometry" />
        </mxCell>
        <mxCell id="LKTkPYLuN1g2WceH0jgF-64" value="&lt;b&gt;Capture Vue App&lt;/b&gt;&lt;br&gt;Vue.js" style="rounded=0;whiteSpace=wrap;html=1;movable=1;resizable=1;rotatable=1;deletable=1;editable=1;connectable=1;fillColor=#d5e8d4;strokeColor=#82b366;" parent="1" vertex="1">
          <mxGeometry x="3260" y="135" width="120" height="60" as="geometry" />
        </mxCell>
        <mxCell id="LKTkPYLuN1g2WceH0jgF-65" value="" style="edgeStyle=orthogonalEdgeStyle;rounded=0;orthogonalLoop=1;jettySize=auto;html=1;entryX=0.451;entryY=-0.03;entryDx=0;entryDy=0;entryPerimeter=0;movable=1;resizable=1;rotatable=1;deletable=1;editable=1;connectable=1;" parent="1" source="LKTkPYLuN1g2WceH0jgF-66" target="LKTkPYLuN1g2WceH0jgF-74" edge="1">
          <mxGeometry relative="1" as="geometry" />
        </mxCell>
        <mxCell id="LKTkPYLuN1g2WceH0jgF-66" value="&lt;b&gt;UI Components&lt;/b&gt;&lt;br&gt;HTML, SCSS, JS" style="rounded=0;whiteSpace=wrap;html=1;movable=1;resizable=1;rotatable=1;deletable=1;editable=1;connectable=1;fillColor=none;strokeColor=#d79b00;" parent="1" vertex="1">
          <mxGeometry x="3260" y="225" width="120" height="60" as="geometry" />
        </mxCell>
        <mxCell id="LKTkPYLuN1g2WceH0jgF-68" value="HTTP Requests" style="edgeStyle=orthogonalEdgeStyle;rounded=0;orthogonalLoop=1;jettySize=auto;html=1;entryX=0.5;entryY=0;entryDx=0;entryDy=0;exitX=0;exitY=0.25;exitDx=0;exitDy=0;movable=1;resizable=1;rotatable=1;deletable=1;editable=1;connectable=1;" parent="1" source="LKTkPYLuN1g2WceH0jgF-69" target="9MLLla6oI4jPxRE4S_ba-106" edge="1">
          <mxGeometry relative="1" as="geometry">
            <mxPoint x="2950" y="450" as="targetPoint" />
          </mxGeometry>
        </mxCell>
        <mxCell id="LKTkPYLuN1g2WceH0jgF-69" value="&lt;b&gt;Vuex Store&lt;br&gt;&lt;/b&gt;Container to hold the app state, has the business logic for documents/ annotations/ categories" style="rounded=0;whiteSpace=wrap;html=1;movable=1;resizable=1;rotatable=1;deletable=1;editable=1;connectable=1;fillColor=none;strokeColor=#82b366;" parent="1" vertex="1">
          <mxGeometry x="3025" y="185" width="120" height="110" as="geometry" />
        </mxCell>
        <mxCell id="LKTkPYLuN1g2WceH0jgF-71" value="Response" style="endArrow=classic;html=1;rounded=0;exitX=0.75;exitY=0;exitDx=0;exitDy=0;entryX=0;entryY=0.75;entryDx=0;entryDy=0;movable=1;resizable=1;rotatable=1;deletable=1;editable=1;connectable=1;" parent="1" source="9MLLla6oI4jPxRE4S_ba-106" target="LKTkPYLuN1g2WceH0jgF-69" edge="1">
          <mxGeometry width="50" height="50" relative="1" as="geometry">
            <mxPoint x="2950" y="480" as="sourcePoint" />
            <mxPoint x="3220" y="455" as="targetPoint" />
            <Array as="points">
              <mxPoint x="2920" y="268" />
            </Array>
          </mxGeometry>
        </mxCell>
        <mxCell id="LKTkPYLuN1g2WceH0jgF-72" value="Sentry" style="whiteSpace=wrap;html=1;rounded=0;movable=1;resizable=1;rotatable=1;deletable=1;editable=1;connectable=1;fillColor=none;strokeColor=#b85450;" parent="1" vertex="1">
          <mxGeometry x="3500" y="145" width="120" height="60" as="geometry" />
        </mxCell>
        <mxCell id="LKTkPYLuN1g2WceH0jgF-73" value="Watchers" style="endArrow=classic;startArrow=classic;html=1;rounded=0;exitX=1;exitY=0.5;exitDx=0;exitDy=0;entryX=0;entryY=0.5;entryDx=0;entryDy=0;movable=1;resizable=1;rotatable=1;deletable=1;editable=1;connectable=1;" parent="1" source="LKTkPYLuN1g2WceH0jgF-69" target="LKTkPYLuN1g2WceH0jgF-66" edge="1">
          <mxGeometry width="50" height="50" relative="1" as="geometry">
            <mxPoint x="3290" y="485" as="sourcePoint" />
            <mxPoint x="3340" y="435" as="targetPoint" />
          </mxGeometry>
        </mxCell>
        <mxCell id="LKTkPYLuN1g2WceH0jgF-79" value="" style="endArrow=none;html=1;rounded=0;fontSize=19;entryX=0.25;entryY=1;entryDx=0;entryDy=0;exitX=1;exitY=0.25;exitDx=0;exitDy=0;movable=1;resizable=1;rotatable=1;deletable=1;editable=1;connectable=1;" parent="1" source="LKTkPYLuN1g2WceH0jgF-69" target="LKTkPYLuN1g2WceH0jgF-64" edge="1">
          <mxGeometry width="50" height="50" relative="1" as="geometry">
            <mxPoint x="3270" y="465" as="sourcePoint" />
            <mxPoint x="3320" y="415" as="targetPoint" />
          </mxGeometry>
        </mxCell>
        <mxCell id="LKTkPYLuN1g2WceH0jgF-80" value="" style="endArrow=none;html=1;rounded=0;fontSize=19;entryX=0.5;entryY=1;entryDx=0;entryDy=0;exitX=0.5;exitY=0;exitDx=0;exitDy=0;movable=1;resizable=1;rotatable=1;deletable=1;editable=1;connectable=1;" parent="1" source="LKTkPYLuN1g2WceH0jgF-66" target="LKTkPYLuN1g2WceH0jgF-64" edge="1">
          <mxGeometry width="50" height="50" relative="1" as="geometry">
            <mxPoint x="3270" y="465" as="sourcePoint" />
            <mxPoint x="3320" y="415" as="targetPoint" />
          </mxGeometry>
        </mxCell>
        <mxCell id="LKTkPYLuN1g2WceH0jgF-77" value="Document Annotations" style="rounded=0;whiteSpace=wrap;html=1;movable=1;resizable=1;rotatable=1;deletable=1;editable=1;connectable=1;fillColor=none;strokeColor=#d79b00;" parent="1" vertex="1">
          <mxGeometry x="3340" y="400" width="120" height="60" as="geometry" />
        </mxCell>
        <mxCell id="LKTkPYLuN1g2WceH0jgF-76" value="Document Viewer" style="whiteSpace=wrap;html=1;rounded=0;movable=1;resizable=1;rotatable=1;deletable=1;editable=1;connectable=1;fillColor=none;strokeColor=#d79b00;" parent="1" vertex="1">
          <mxGeometry x="3210" y="400" width="120" height="60" as="geometry" />
        </mxCell>
        <mxCell id="LKTkPYLuN1g2WceH0jgF-75" value="Documents List" style="rounded=0;whiteSpace=wrap;html=1;movable=1;resizable=1;rotatable=1;deletable=1;editable=1;connectable=1;fillColor=none;strokeColor=#d79b00;" parent="1" vertex="1">
          <mxGeometry x="3080" y="400" width="120" height="60" as="geometry" />
        </mxCell>
        <mxCell id="LKTkPYLuN1g2WceH0jgF-78" value="&lt;b&gt;&lt;font style=&quot;font-size: 19px;&quot;&gt;...&lt;/font&gt;&lt;/b&gt;" style="rounded=0;whiteSpace=wrap;html=1;movable=1;resizable=1;rotatable=1;deletable=1;editable=1;connectable=1;fillColor=none;strokeColor=#d79b00;" parent="1" vertex="1">
          <mxGeometry x="3470" y="400" width="120" height="60" as="geometry" />
        </mxCell>
        <mxCell id="LKTkPYLuN1g2WceH0jgF-83" value="" style="swimlane;startSize=0;" parent="1" vertex="1">
          <mxGeometry x="2970" y="135" width="730" height="390" as="geometry" />
        </mxCell>
        <mxCell id="LKTkPYLuN1g2WceH0jgF-74" value="" style="swimlane;startSize=0;movable=1;resizable=1;rotatable=1;deletable=1;editable=1;connectable=1;fillColor=#D4E1F5;" parent="LKTkPYLuN1g2WceH0jgF-83" vertex="1">
          <mxGeometry x="70" y="230" width="620" height="130" as="geometry">
            <mxRectangle x="850" y="260" width="50" height="40" as="alternateBounds" />
          </mxGeometry>
        </mxCell>
        <mxCell id="GbPzBh_5DXwl44FfzJLB-1" value="Categorization and Extraction progress" style="text;html=1;strokeColor=none;fillColor=none;align=center;verticalAlign=middle;whiteSpace=wrap;rounded=0;fontStyle=1;fontSize=15;" vertex="1" parent="1">
          <mxGeometry x="1010" y="125" width="370" height="120" as="geometry" />
        </mxCell>
        <mxCell id="GbPzBh_5DXwl44FfzJLB-3" value="" style="edgeStyle=orthogonalEdgeStyle;rounded=0;orthogonalLoop=1;jettySize=auto;html=1;" edge="1" parent="1" source="GbPzBh_5DXwl44FfzJLB-2" target="9MLLla6oI4jPxRE4S_ba-3">
          <mxGeometry relative="1" as="geometry" />
        </mxCell>
        <mxCell id="GbPzBh_5DXwl44FfzJLB-2" value="Detect rotation (optional) add arrow" style="rounded=0;whiteSpace=wrap;html=1;fillColor=none;strokeColor=#129416;fontStyle=1" vertex="1" parent="1">
          <mxGeometry x="-610" y="430" width="120" height="60" as="geometry" />
        </mxCell>
        <mxCell id="GbPzBh_5DXwl44FfzJLB-4" value="&lt;div&gt;build_sandwich&lt;/div&gt;" style="rounded=0;whiteSpace=wrap;html=1;strokeColor=#3D0A05;" vertex="1" parent="1">
          <mxGeometry x="2660" y="265" width="120" height="60" as="geometry" />
        </mxCell>
        <mxCell id="GbPzBh_5DXwl44FfzJLB-5" value="generate_entities" style="rounded=0;whiteSpace=wrap;html=1;strokeColor=#3D0A05;" vertex="1" parent="1">
          <mxGeometry x="2660" y="340" width="120" height="60" as="geometry" />
        </mxCell>
      </root>
    </mxGraphModel>
  </diagram>
</mxfile>
